<svg xmlns="http://www.w3.org/2000/svg" xmlns:xlink="http://www.w3.org/1999/xlink" width="500" zoomAndPan="magnify" viewBox="0 0 375 374.999991" height="500" preserveAspectRatio="xMidYMid meet" version="1.0"><defs><g/><clipPath id="b6c3c010c2"><path d="M 37.5 125 L 108.75 125 L 108.75 180.625 L 37.5 180.625 Z M 37.5 125 " clip-rule="nonzero"/></clipPath></defs><rect x="-37.5" width="450" fill="#ffffff" y="-37.499999" height="449.999989" fill-opacity="1"/><rect x="-37.5" width="450" fill="#ffffff" y="-37.499999" height="449.999989" fill-opacity="1"/><g fill="#ad332e" fill-opacity="1"><g transform="translate(119.155575, 176.453852)"><g><path d="M 36.164062 -47.980469 C 36.308594 -50.902344 34.742188 -53.25 31.75 -53.25 C 26.910156 -53.25 23.992188 -47.910156 23.992188 -42.925781 C 23.992188 -42.285156 24.0625 -41.71875 24.132812 -41.078125 C 23.207031 -41.003906 22.210938 -40.933594 21.070312 -40.933594 C 12.957031 -40.933594 7.046875 -44.421875 3.558594 -51.683594 C 3.273438 -52.253906 2.777344 -52.539062 2.207031 -52.539062 C 1.636719 -52.539062 0.710938 -52.109375 0.710938 -51.113281 C 0.710938 -50.828125 0.78125 -50.617188 0.855469 -50.402344 C 4.914062 -42.074219 11.816406 -37.945312 21.214844 -37.945312 C 22.496094 -37.945312 23.636719 -38.015625 24.703125 -38.085938 C 25.484375 -35.238281 26.765625 -32.320312 28.121094 -29.332031 C 30.183594 -24.773438 32.320312 -20.074219 32.320312 -15.164062 C 32.320312 -6.265625 25.84375 0.570312 16.445312 0.570312 C 8.828125 0.570312 2.988281 -4.414062 2.988281 -11.53125 C 2.988281 -18.296875 8.117188 -24.277344 14.378906 -24.277344 C 18.792969 -24.277344 21.714844 -20.429688 21.285156 -16.300781 C 21.214844 -15.378906 21.925781 -14.664062 22.851562 -14.664062 C 23.5625 -14.664062 24.0625 -15.234375 24.203125 -15.734375 C 24.347656 -16.300781 24.347656 -16.730469 24.347656 -17.015625 C 24.347656 -22.496094 20.289062 -27.265625 14.378906 -27.265625 C 6.691406 -27.265625 0 -20.21875 0 -11.746094 C 0 -3.0625 6.761719 3.558594 16.230469 3.558594 C 26.980469 3.558594 35.308594 -3.988281 35.308594 -15.164062 C 35.308594 -20.644531 33.03125 -25.699219 30.824219 -30.539062 C 29.542969 -33.316406 28.332031 -36.023438 27.621094 -38.65625 C 32.890625 -40.292969 35.949219 -43.78125 36.164062 -47.980469 Z M 33.175781 -47.980469 C 33.175781 -46.84375 33.03125 -43.851562 27.125 -41.644531 C 27.050781 -42.074219 27.050781 -42.570312 27.050781 -43 C 27.050781 -46.203125 28.546875 -50.261719 31.464844 -50.261719 C 32.605469 -50.261719 33.175781 -49.476562 33.175781 -47.980469 Z M 33.175781 -47.980469 "/></g></g></g><g fill="#ad332e" fill-opacity="1"><g transform="translate(158.44679, 176.453852)"><g><path d="M 41.574219 -15.589844 C 41.574219 -16.445312 40.792969 -17.085938 40.007812 -17.085938 C 39.4375 -17.085938 38.941406 -16.730469 38.65625 -16.160156 C 36.378906 -10.890625 34.101562 -7.546875 30.398438 -7.546875 C 29.117188 -7.546875 27.765625 -8.117188 27.050781 -9.042969 C 29.542969 -13.382812 35.523438 -25.273438 38.65625 -31.679688 C 38.726562 -31.894531 38.796875 -32.105469 38.796875 -32.390625 C 38.796875 -33.175781 38.15625 -33.886719 37.375 -33.886719 C 36.804688 -33.886719 36.234375 -33.53125 35.949219 -33.03125 C 33.742188 -28.40625 28.191406 -17.511719 26.054688 -13.453125 C 26.125 -13.953125 26.199219 -14.59375 26.410156 -15.164062 C 26.695312 -16.160156 25.914062 -17.085938 24.917969 -17.085938 C 24.203125 -17.085938 23.707031 -16.660156 23.492188 -15.945312 C 22.921875 -13.953125 22.78125 -11.320312 23.5625 -9.183594 C 20.359375 -4.628906 19.078125 -2.988281 16.800781 -2.988281 C 15.449219 -2.988281 14.664062 -3.703125 14.664062 -5.980469 C 14.664062 -9.539062 18.507812 -19.933594 22.996094 -31.820312 C 23.351562 -32.746094 22.636719 -33.816406 21.5 -33.816406 C 20.929688 -33.816406 20.359375 -33.460938 20.148438 -32.890625 C 19.363281 -30.683594 15.378906 -19.433594 14.09375 -16.230469 C 10.25 -6.621094 7.261719 -2.988281 3.84375 -2.988281 C 2.347656 -2.988281 1.707031 -3.84375 1.707031 -5.980469 C 1.707031 -8.757812 3.0625 -12.601562 10.039062 -31.820312 C 10.394531 -32.746094 9.824219 -33.816406 8.613281 -33.816406 C 8.042969 -33.816406 7.476562 -33.460938 7.261719 -32.890625 C 1.140625 -16.660156 -1.28125 -9.539062 -1.28125 -5.980469 C -1.28125 -2.492188 0.425781 0 3.84375 0 C 7.046875 0 9.609375 -2.136719 11.675781 -5.054688 C 12.101562 -1.992188 13.527344 0 16.800781 0 C 20.148438 0 22.710938 -2.707031 25.414062 -6.476562 C 26.554688 -5.339844 28.261719 -4.554688 30.398438 -4.554688 C 35.453125 -4.554688 39.4375 -9.539062 41.433594 -15.019531 C 41.503906 -15.234375 41.574219 -15.378906 41.574219 -15.589844 Z M 41.574219 -15.589844 "/></g></g></g><g fill="#ad332e" fill-opacity="1"><g transform="translate(195.887335, 176.453852)"><g><path d="M 25.769531 -16.941406 C 24.988281 -17.226562 24.132812 -16.871094 23.777344 -16.160156 C 19.789062 -6.976562 15.234375 -2.847656 9.398438 -2.988281 C 5.125 -3.132812 2.847656 -5.625 2.988281 -9.683594 C 3.0625 -11.175781 3.273438 -12.53125 3.773438 -14.378906 C 11.675781 -16.300781 22.28125 -20.859375 22.28125 -28.40625 C 22.28125 -31.820312 19.789062 -33.671875 16.230469 -33.671875 C 7.832031 -33.671875 0.425781 -18.867188 0 -9.753906 C -0.140625 -3.914062 3.417969 0 9.324219 0 C 16.515625 0 21.925781 -4.699219 26.554688 -14.949219 C 26.625 -15.164062 26.695312 -15.304688 26.695312 -15.519531 C 26.695312 -16.089844 26.339844 -16.660156 25.769531 -16.941406 Z M 4.914062 -17.796875 C 7.191406 -23.277344 11.320312 -30.683594 16.230469 -30.683594 C 17.796875 -30.683594 19.292969 -30.328125 19.292969 -28.40625 C 19.292969 -23.136719 10.820312 -19.648438 4.914062 -17.796875 Z M 4.914062 -17.796875 "/></g></g></g><g fill="#ad332e" fill-opacity="1"><g transform="translate(218.451318, 176.453852)"><g><path d="M 25.769531 -16.941406 C 24.988281 -17.226562 24.132812 -16.871094 23.777344 -16.160156 C 19.789062 -6.976562 15.234375 -2.847656 9.398438 -2.988281 C 5.125 -3.132812 2.847656 -5.625 2.988281 -9.683594 C 3.0625 -11.175781 3.273438 -12.53125 3.773438 -14.378906 C 11.675781 -16.300781 22.28125 -20.859375 22.28125 -28.40625 C 22.28125 -31.820312 19.789062 -33.671875 16.230469 -33.671875 C 7.832031 -33.671875 0.425781 -18.867188 0 -9.753906 C -0.140625 -3.914062 3.417969 0 9.324219 0 C 16.515625 0 21.925781 -4.699219 26.554688 -14.949219 C 26.625 -15.164062 26.695312 -15.304688 26.695312 -15.519531 C 26.695312 -16.089844 26.339844 -16.660156 25.769531 -16.941406 Z M 4.914062 -17.796875 C 7.191406 -23.277344 11.320312 -30.683594 16.230469 -30.683594 C 17.796875 -30.683594 19.292969 -30.328125 19.292969 -28.40625 C 19.292969 -23.136719 10.820312 -19.648438 4.914062 -17.796875 Z M 4.914062 -17.796875 "/></g></g></g><g fill="#ad332e" fill-opacity="1"><g transform="translate(241.0153, 176.453852)"><g><path d="M 18.082031 -16.941406 C 17.867188 -17.015625 17.65625 -17.085938 17.441406 -17.085938 C 16.871094 -17.085938 16.300781 -16.730469 16.019531 -16.230469 C 12.671875 -8.898438 9.253906 -2.988281 4.128906 -2.988281 C 2.707031 -2.988281 1.851562 -4.058594 1.851562 -5.980469 C 1.851562 -8.042969 2.777344 -11.320312 5.695312 -19.578125 C 8.042969 -26.199219 9.253906 -29.472656 9.683594 -30.824219 L 15.519531 -30.824219 C 16.375 -30.824219 17.015625 -31.464844 17.015625 -32.320312 C 17.015625 -33.101562 16.375 -33.816406 15.519531 -33.816406 L 10.75 -33.816406 C 11.246094 -35.167969 14.308594 -43.851562 14.09375 -43.425781 C 14.453125 -44.351562 13.738281 -45.417969 12.671875 -45.417969 C 12.03125 -45.417969 11.460938 -45.0625 11.246094 -44.421875 C 11.175781 -44.136719 7.6875 -34.101562 7.546875 -33.816406 L 2.066406 -33.816406 C 1.210938 -33.816406 0.570312 -33.101562 0.570312 -32.320312 C 0.570312 -31.464844 1.210938 -30.824219 2.066406 -30.824219 L 6.550781 -30.824219 L 2.917969 -20.644531 C 0.640625 -14.808594 -1.140625 -8.613281 -1.140625 -5.980469 C -1.140625 -2.5625 0.710938 0 4.128906 0 C 10.679688 0 14.664062 -6.050781 18.792969 -14.949219 C 18.867188 -15.164062 18.9375 -15.378906 18.9375 -15.589844 C 18.9375 -16.160156 18.582031 -16.660156 18.082031 -16.941406 Z M 18.082031 -16.941406 "/></g></g></g><g fill="#ad332e" fill-opacity="1"><g transform="translate(60.725891, 242.453847)"><g><path d="M 36.164062 -47.980469 C 36.308594 -50.902344 34.742188 -53.25 31.75 -53.25 C 26.910156 -53.25 23.992188 -47.910156 23.992188 -42.925781 C 23.992188 -42.285156 24.0625 -41.71875 24.132812 -41.078125 C 23.207031 -41.003906 22.210938 -40.933594 21.070312 -40.933594 C 12.957031 -40.933594 7.046875 -44.421875 3.558594 -51.683594 C 3.273438 -52.253906 2.777344 -52.539062 2.207031 -52.539062 C 1.636719 -52.539062 0.710938 -52.109375 0.710938 -51.113281 C 0.710938 -50.828125 0.78125 -50.617188 0.855469 -50.402344 C 4.914062 -42.074219 11.816406 -37.945312 21.214844 -37.945312 C 22.496094 -37.945312 23.636719 -38.015625 24.703125 -38.085938 C 25.484375 -35.238281 26.765625 -32.320312 28.121094 -29.332031 C 30.183594 -24.773438 32.320312 -20.074219 32.320312 -15.164062 C 32.320312 -6.265625 25.84375 0.570312 16.445312 0.570312 C 8.828125 0.570312 2.988281 -4.414062 2.988281 -11.53125 C 2.988281 -18.296875 8.117188 -24.277344 14.378906 -24.277344 C 18.792969 -24.277344 21.714844 -20.429688 21.285156 -16.300781 C 21.214844 -15.378906 21.925781 -14.664062 22.851562 -14.664062 C 23.5625 -14.664062 24.0625 -15.234375 24.203125 -15.734375 C 24.347656 -16.300781 24.347656 -16.730469 24.347656 -17.015625 C 24.347656 -22.496094 20.289062 -27.265625 14.378906 -27.265625 C 6.691406 -27.265625 0 -20.21875 0 -11.746094 C 0 -3.0625 6.761719 3.558594 16.230469 3.558594 C 26.980469 3.558594 35.308594 -3.988281 35.308594 -15.164062 C 35.308594 -20.644531 33.03125 -25.699219 30.824219 -30.539062 C 29.542969 -33.316406 28.332031 -36.023438 27.621094 -38.65625 C 32.890625 -40.292969 35.949219 -43.78125 36.164062 -47.980469 Z M 33.175781 -47.980469 C 33.175781 -46.84375 33.03125 -43.851562 27.125 -41.644531 C 27.050781 -42.074219 27.050781 -42.570312 27.050781 -43 C 27.050781 -46.203125 28.546875 -50.261719 31.464844 -50.261719 C 32.605469 -50.261719 33.175781 -49.476562 33.175781 -47.980469 Z M 33.175781 -47.980469 "/></g></g></g><g fill="#ad332e" fill-opacity="1"><g transform="translate(100.017106, 242.453847)"><g><path d="M 32.535156 -16.871094 C 32.320312 -16.941406 32.105469 -17.015625 31.894531 -17.015625 C 31.324219 -17.015625 30.824219 -16.660156 30.539062 -16.089844 C 26.980469 -7.6875 21.996094 -1.140625 13.8125 1.636719 L 14.878906 -1.496094 L 20.574219 -17.726562 C 22.851562 -23.917969 24.773438 -28.832031 25.914062 -31.75 C 26.269531 -32.820312 25.273438 -33.816406 24.417969 -33.816406 C 23.847656 -33.816406 23.277344 -33.386719 23.066406 -32.820312 C 18.296875 -20.21875 18.722656 -21.5 17.796875 -18.722656 C 14.949219 -10.535156 10.394531 -2.988281 6.621094 -2.988281 C 2.5625 -2.988281 1.921875 -5.554688 1.921875 -7.617188 C 1.921875 -10.179688 3.132812 -12.386719 6.265625 -21 L 10.179688 -31.820312 C 10.535156 -32.746094 9.964844 -33.816406 8.757812 -33.816406 C 8.1875 -33.816406 7.617188 -33.460938 7.402344 -32.890625 L 3.417969 -22.070312 C 0.640625 -14.808594 -0.996094 -10.890625 -1.140625 -7.617188 C -1.140625 -4.058594 0.570312 0 6.621094 0 C 8.613281 0 10.394531 -0.855469 12.03125 -2.421875 L 10.25 2.707031 C 8.328125 3.203125 6.40625 3.558594 4.628906 3.84375 C -3.914062 5.410156 -7.402344 8.683594 -7.402344 13.171875 C -7.402344 17.371094 -4.628906 20.148438 -0.355469 20.074219 C 4.769531 20.003906 9.183594 14.949219 12.601562 5.195312 C 22.996094 2.136719 28.902344 -4.484375 33.316406 -14.878906 C 33.386719 -15.09375 33.460938 -15.304688 33.460938 -15.519531 C 33.460938 -16.089844 33.101562 -16.585938 32.535156 -16.871094 Z M -0.355469 17.085938 C -2.777344 17.15625 -4.414062 15.589844 -4.414062 13.097656 C -4.128906 9.824219 -1.351562 7.972656 5.195312 6.835938 C 6.476562 6.621094 7.757812 6.335938 9.113281 6.050781 C 6.761719 13.242188 3.488281 17.015625 -0.355469 17.085938 Z M -0.355469 17.085938 "/></g></g></g><g fill="#ad332e" fill-opacity="1"><g transform="translate(129.343162, 242.453847)"><g><path d="M 48.054688 -15.589844 C 48.054688 -16.375 47.269531 -17.085938 46.558594 -17.085938 C 45.988281 -17.085938 45.347656 -16.730469 45.132812 -16.160156 C 41.289062 -7.191406 38.441406 -2.988281 34.953125 -2.988281 C 33.460938 -2.988281 32.820312 -3.914062 32.820312 -5.980469 C 32.820312 -12.101562 38.300781 -20.289062 38.300781 -27.125 C 38.300781 -30.894531 36.734375 -33.816406 31.609375 -33.816406 C 28.261719 -33.816406 24.632812 -30.539062 22.566406 -27.265625 C 22.566406 -31.039062 20.289062 -33.816406 16.019531 -33.816406 C 13.597656 -33.816406 11.320312 -32.179688 9.253906 -29.757812 C 9.46875 -30.46875 9.683594 -31.039062 9.964844 -31.679688 C 10.324219 -32.605469 9.609375 -33.671875 8.542969 -33.671875 C 7.902344 -33.671875 7.332031 -33.316406 7.117188 -32.675781 C 3.488281 -22.425781 -0.214844 -12.171875 -3.84375 -1.921875 C -4.128906 -1.140625 -3.703125 -0.285156 -2.917969 0 C -2.136719 0.214844 -1.28125 -0.140625 -0.996094 -0.996094 L 3.84375 -14.738281 C 4.269531 -15.875 8.542969 -23.707031 9.824219 -25.628906 C 11.890625 -28.546875 14.023438 -30.824219 16.019531 -30.824219 C 18.582031 -30.824219 19.578125 -29.472656 19.578125 -26.839844 C 19.578125 -24.347656 18.507812 -21.144531 17.015625 -16.800781 C 16.941406 -16.660156 12.246094 -2.707031 12.171875 -2.492188 C 11.816406 -1.566406 12.53125 -0.5 13.597656 -0.5 C 14.238281 -0.5 14.808594 -0.855469 15.019531 -1.496094 C 14.949219 -1.351562 19.71875 -15.304688 19.863281 -15.734375 C 21.925781 -21.5 27.480469 -30.824219 31.609375 -30.824219 C 34.457031 -30.824219 35.308594 -29.1875 35.308594 -27.125 C 35.308594 -21.285156 29.757812 -12.457031 29.757812 -5.980469 C 29.757812 -2.492188 31.464844 0 34.953125 0 C 41.289062 0 45.207031 -8.757812 47.839844 -14.738281 C 47.980469 -15.234375 48.054688 -15.378906 48.054688 -15.589844 Z M 48.054688 -15.589844 "/></g></g></g><g fill="#ad332e" fill-opacity="1"><g transform="translate(173.261062, 242.453847)"><g><path d="M 30.253906 -16.941406 C 30.042969 -17.015625 29.828125 -17.085938 29.613281 -17.085938 C 29.046875 -17.085938 28.546875 -16.730469 28.261719 -16.160156 C 27.125 -12.171875 23.847656 -7.546875 20.074219 -7.546875 C 18.792969 -7.546875 17.582031 -8.042969 16.730469 -8.96875 C 19.292969 -12.8125 22.210938 -20.789062 22.210938 -25.699219 C 22.210938 -30.113281 20.714844 -33.816406 16.230469 -33.816406 C 13.597656 -33.816406 11.320312 -32.390625 9.324219 -30.328125 L 9.894531 -31.820312 C 10.25 -32.746094 9.539062 -33.816406 8.472656 -33.816406 C 7.832031 -33.816406 7.261719 -33.460938 7.046875 -32.820312 L 6.621094 -31.679688 C 5.765625 -29.472656 1.636719 -18.011719 -2.421875 -6.90625 L -10.394531 15.378906 C -10.75 16.300781 -10.039062 17.371094 -8.96875 17.371094 C -8.328125 17.371094 -7.757812 17.015625 -7.546875 16.375 C -6.835938 14.238281 -3.914062 6.121094 -0.710938 -2.777344 C 0.0703125 -0.855469 1.707031 0.0703125 4.414062 0.214844 C 8.542969 0.355469 12.171875 -2.492188 15.09375 -6.40625 C 16.160156 -5.339844 17.941406 -4.554688 20.003906 -4.554688 C 24.917969 -4.554688 29.542969 -9.753906 31.039062 -15.019531 C 31.109375 -15.234375 31.179688 -15.378906 31.179688 -15.589844 C 31.179688 -16.160156 30.824219 -16.730469 30.253906 -16.941406 Z M 14.523438 -17.085938 C 13.882812 -17.085938 13.242188 -16.660156 13.097656 -15.945312 C 12.53125 -13.953125 12.316406 -11.175781 13.242188 -9.042969 C 10.820312 -5.339844 7.757812 -2.707031 4.484375 -2.777344 C 2.492188 -2.847656 1.78125 -3.988281 1.78125 -6.476562 C 1.78125 -8.828125 2.277344 -9.753906 3.347656 -12.742188 C 6.195312 -19.933594 10.535156 -30.824219 16.375 -30.824219 C 18.507812 -30.824219 19.148438 -28.832031 19.148438 -25.84375 C 19.148438 -22.28125 17.726562 -17.65625 15.660156 -13.3125 C 15.734375 -13.882812 15.804688 -14.523438 16.019531 -15.164062 C 16.230469 -16.160156 15.519531 -17.085938 14.523438 -17.085938 Z M 14.523438 -17.085938 "/></g></g></g><g fill="#ad332e" fill-opacity="1"><g transform="translate(200.309366, 242.453847)"><g><path d="M 31.609375 -16.941406 C 31.394531 -17.015625 31.179688 -17.085938 30.96875 -17.085938 C 30.398438 -17.085938 29.898438 -16.730469 29.613281 -16.160156 C 25.558594 -6.976562 22.78125 -2.988281 19.363281 -2.988281 C 17.867188 -2.988281 17.226562 -3.914062 17.226562 -5.980469 C 17.226562 -11.105469 22.78125 -21.714844 22.78125 -27.125 C 22.78125 -30.894531 21.144531 -33.816406 16.089844 -33.816406 C 13.8125 -33.816406 11.675781 -32.535156 9.609375 -30.46875 C 12.03125 -37.230469 13.597656 -41.71875 14.238281 -43.566406 C 14.59375 -44.492188 13.882812 -45.5625 12.8125 -45.5625 C 12.171875 -45.5625 11.605469 -45.207031 11.390625 -44.636719 C 9.042969 -37.730469 2.917969 -20.789062 -3.84375 -1.992188 C -4.128906 -1.210938 -3.703125 -0.355469 -2.917969 -0.0703125 C -2.136719 0.140625 -1.28125 -0.214844 -0.996094 -1.066406 C 5.339844 -18.4375 5.980469 -21.214844 10.464844 -26.910156 C 12.316406 -29.1875 14.308594 -30.824219 16.089844 -30.824219 C 18.867188 -30.824219 19.789062 -29.1875 19.789062 -27.125 C 19.789062 -21.640625 14.238281 -12.53125 14.238281 -5.980469 C 14.238281 -2.492188 15.875 0 19.363281 0 C 24.203125 0 27.550781 -4.199219 32.390625 -14.949219 C 32.460938 -15.164062 32.535156 -15.378906 32.535156 -15.519531 C 32.535156 -16.160156 32.179688 -16.660156 31.609375 -16.941406 Z M 31.609375 -16.941406 "/></g></g></g><g fill="#ad332e" fill-opacity="1"><g transform="translate(228.710087, 242.453847)"><g><path d="M 31.820312 -15.019531 C 32.25 -16.019531 31.464844 -17.085938 30.398438 -17.085938 C 29.828125 -17.085938 29.257812 -16.730469 29.046875 -16.160156 C 26.554688 -10.25 24.0625 -7.546875 21.070312 -7.546875 C 19.433594 -7.546875 18.226562 -8.042969 17.441406 -9.042969 C 20.714844 -14.59375 22.996094 -21.570312 22.996094 -26.054688 C 22.996094 -30.328125 20.574219 -33.53125 15.875 -33.671875 C 12.316406 -33.671875 8.828125 -31.179688 5.835938 -26.199219 C 3.488281 -22.355469 -0.214844 -15.449219 -0.214844 -7.191406 C -0.214844 -3.0625 1.351562 0 5.980469 0 C 9.398438 0 13.027344 -2.917969 15.660156 -6.476562 C 17.226562 -5.195312 19.078125 -4.554688 21.070312 -4.554688 C 25.34375 -4.554688 28.691406 -7.832031 31.820312 -15.019531 Z M 15.304688 -17.085938 C 14.59375 -17.085938 13.953125 -16.660156 13.8125 -15.945312 C 13.3125 -14.167969 13.171875 -11.035156 13.953125 -9.183594 C 11.605469 -5.835938 8.613281 -2.988281 5.980469 -2.988281 C 3.703125 -2.988281 2.847656 -4.769531 2.847656 -7.332031 C 2.847656 -14.664062 6.621094 -21.570312 8.472656 -24.632812 C 10.535156 -28.191406 13.097656 -30.683594 15.804688 -30.683594 C 18.226562 -30.683594 20.003906 -29.117188 20.003906 -26.125 C 20.003906 -22.851562 18.652344 -17.941406 16.445312 -13.527344 C 16.515625 -14.023438 16.515625 -14.59375 16.730469 -15.164062 C 17.015625 -16.160156 16.300781 -17.085938 15.304688 -17.085938 Z M 15.304688 -17.085938 "/></g></g></g><g fill="#ad332e" fill-opacity="1"><g transform="translate(256.541361, 242.453847)"><g><path d="M 31.609375 -16.941406 C 31.394531 -17.015625 31.179688 -17.085938 30.96875 -17.085938 C 30.398438 -17.085938 29.898438 -16.730469 29.613281 -16.160156 C 25.273438 -6.761719 22.710938 -2.988281 19.363281 -2.988281 C 17.867188 -2.988281 17.226562 -3.914062 17.226562 -5.980469 C 17.226562 -11.460938 22.78125 -20.789062 22.78125 -27.125 C 22.78125 -30.894531 21.214844 -33.816406 16.089844 -33.816406 C 13.738281 -33.816406 11.53125 -32.460938 9.46875 -30.328125 L 10.039062 -31.75 C 10.394531 -32.675781 9.683594 -33.742188 8.613281 -33.742188 C 7.972656 -33.742188 7.402344 -33.386719 7.191406 -32.746094 C 4.414062 -25.128906 -0.0703125 -12.246094 -3.773438 -1.992188 C -4.058594 -1.140625 -3.628906 -0.355469 -2.847656 -0.0703125 C -2.066406 0.140625 -1.210938 -0.214844 -0.925781 -1.066406 L 4.058594 -15.164062 C 6.335938 -21.214844 11.746094 -30.824219 16.089844 -30.824219 C 18.867188 -30.824219 19.789062 -29.1875 19.789062 -27.125 C 19.789062 -20.929688 14.238281 -12.671875 14.238281 -5.980469 C 14.238281 -2.492188 15.945312 0 19.363281 0 C 24.203125 0 27.550781 -4.199219 32.390625 -14.949219 C 32.460938 -15.164062 32.535156 -15.378906 32.535156 -15.589844 C 32.535156 -16.160156 32.179688 -16.660156 31.609375 -16.941406 Z M 31.609375 -16.941406 "/></g></g></g><g fill="#ad332e" fill-opacity="1"><g transform="translate(284.942093, 242.453847)"><g><path d="M 32.535156 -16.871094 C 32.320312 -16.941406 32.105469 -17.015625 31.894531 -17.015625 C 31.324219 -17.015625 30.824219 -16.660156 30.539062 -16.089844 C 26.980469 -7.6875 21.996094 -1.140625 13.8125 1.636719 L 14.878906 -1.496094 L 20.574219 -17.726562 C 22.851562 -23.917969 24.773438 -28.832031 25.914062 -31.75 C 26.269531 -32.820312 25.273438 -33.816406 24.417969 -33.816406 C 23.847656 -33.816406 23.277344 -33.386719 23.066406 -32.820312 C 18.296875 -20.21875 18.722656 -21.5 17.796875 -18.722656 C 14.949219 -10.535156 10.394531 -2.988281 6.621094 -2.988281 C 2.5625 -2.988281 1.921875 -5.554688 1.921875 -7.617188 C 1.921875 -10.179688 3.132812 -12.386719 6.265625 -21 L 10.179688 -31.820312 C 10.535156 -32.746094 9.964844 -33.816406 8.757812 -33.816406 C 8.1875 -33.816406 7.617188 -33.460938 7.402344 -32.890625 L 3.417969 -22.070312 C 0.640625 -14.808594 -0.996094 -10.890625 -1.140625 -7.617188 C -1.140625 -4.058594 0.570312 0 6.621094 0 C 8.613281 0 10.394531 -0.855469 12.03125 -2.421875 L 10.25 2.707031 C 8.328125 3.203125 6.40625 3.558594 4.628906 3.84375 C -3.914062 5.410156 -7.402344 8.683594 -7.402344 13.171875 C -7.402344 17.371094 -4.628906 20.148438 -0.355469 20.074219 C 4.769531 20.003906 9.183594 14.949219 12.601562 5.195312 C 22.996094 2.136719 28.902344 -4.484375 33.316406 -14.878906 C 33.386719 -15.09375 33.460938 -15.304688 33.460938 -15.519531 C 33.460938 -16.089844 33.101562 -16.585938 32.535156 -16.871094 Z M -0.355469 17.085938 C -2.777344 17.15625 -4.414062 15.589844 -4.414062 13.097656 C -4.128906 9.824219 -1.351562 7.972656 5.195312 6.835938 C 6.476562 6.621094 7.757812 6.335938 9.113281 6.050781 C 6.761719 13.242188 3.488281 17.015625 -0.355469 17.085938 Z M -0.355469 17.085938 "/></g></g></g><path fill="#ffefca" d="M 103.847656 151.664062 C 103.828125 151.996094 103.789062 152.324219 103.726562 152.65625 C 103.765625 152.761719 103.773438 152.882812 103.726562 153.007812 C 103.648438 153.207031 103.566406 153.410156 103.484375 153.617188 C 103.417969 153.820312 103.347656 154.023438 103.269531 154.226562 C 103.261719 154.296875 103.238281 154.367188 103.203125 154.4375 C 103.121094 156.285156 101.644531 158.304688 99.914062 158.964844 C 99.292969 159.542969 98.636719 160.066406 97.964844 160.519531 C 97.972656 160.535156 97.980469 160.550781 97.988281 160.566406 C 97.578125 160.730469 97.167969 160.910156 96.761719 161.039062 C 96.609375 161.085938 96.53125 161.226562 96.511719 161.375 C 96.445312 161.464844 96.410156 161.582031 96.441406 161.714844 C 96.464844 161.832031 96.527344 161.9375 96.566406 162.046875 C 96.574219 162.085938 96.582031 162.125 96.59375 162.160156 C 95.027344 162.988281 93.167969 163.449219 91.515625 163.832031 C 88.878906 164.445312 86.246094 164.769531 83.558594 165.03125 C 81.109375 165.269531 78.65625 165.839844 76.195312 165.894531 C 74.070312 165.945312 71.804688 165.964844 69.765625 165.292969 C 69.660156 165.257812 69.570312 165.203125 69.5 165.132812 C 68.800781 165.148438 68.105469 165.15625 67.40625 165.152344 C 65.992188 165.148438 64.566406 165.136719 63.160156 164.960938 C 62.074219 164.824219 60.910156 164.742188 59.949219 164.199219 C 58.726562 164.105469 57.503906 163.980469 56.277344 163.824219 C 51.742188 163.242188 44.539062 162.601562 44.019531 156.996094 C 43.878906 155.480469 44.972656 153.84375 45.167969 152.625 C 43.792969 151.355469 43.34375 149.359375 43.367188 147.523438 C 43.382812 146.191406 43.605469 144.601562 44.59375 143.714844 C 44.570312 143.59375 44.578125 143.460938 44.628906 143.324219 C 45.089844 142.074219 46.457031 141.609375 47.691406 141.375 C 48.480469 140.894531 49.488281 140.6875 50.335938 140.546875 C 51.132812 140.414062 52.679688 140.242188 53.519531 140.785156 C 53.898438 139.898438 53.695312 138.929688 54 137.945312 C 54.414062 136.589844 55.4375 134.996094 56.351562 133.890625 C 56.582031 133.617188 56.855469 133.335938 57.164062 133.054688 C 57.289062 133.085938 57.429688 133.0625 57.550781 132.953125 C 59.449219 131.234375 61.882812 131.3125 64.28125 131.261719 C 64.304688 131.265625 64.328125 131.273438 64.351562 131.277344 C 64.503906 131.472656 64.867188 131.53125 65 131.277344 C 65.023438 131.234375 65.042969 131.191406 65.066406 131.144531 C 65.171875 131.117188 65.261719 131.039062 65.320312 130.902344 C 65.4375 130.609375 65.5625 130.316406 65.683594 130.019531 C 65.6875 130.015625 65.6875 130.011719 65.691406 130.007812 C 66.578125 129.140625 67.429688 128.242188 68.3125 127.375 C 69.070312 126.886719 69.777344 126.496094 70.21875 126.335938 C 71.925781 125.699219 73.601562 125.316406 75.445312 125.601562 C 76.15625 125.710938 77.4375 126.121094 78.121094 126.414062 C 79.875 127.160156 79.746094 128.308594 80.910156 129.230469 C 81.039062 129.335938 81.203125 129.433594 81.386719 129.527344 C 81.359375 129.640625 81.375 129.761719 81.40625 129.878906 C 81.429688 129.960938 81.476562 130.027344 81.539062 130.078125 C 81.671875 130.28125 82 130.335938 82.179688 130.167969 C 82.257812 130.097656 82.34375 130.027344 82.429688 129.960938 C 83.253906 130.25 84.183594 130.503906 84.835938 130.738281 C 84.835938 130.8125 84.863281 130.890625 84.929688 130.96875 C 85.121094 131.203125 85.347656 131.363281 85.582031 131.554688 C 85.742188 131.691406 85.972656 131.640625 86.109375 131.507812 C 86.542969 131.597656 86.988281 131.582031 87.4375 131.515625 C 87.707031 131.574219 87.980469 131.628906 88.261719 131.683594 C 89.054688 131.425781 89.835938 131.265625 90.734375 131.410156 C 91.679688 131.5625 92.628906 131.980469 93.457031 132.457031 C 94.429688 133.015625 95.03125 133.832031 95.519531 134.738281 C 95.582031 134.753906 95.640625 134.789062 95.699219 134.839844 C 96.648438 135.699219 96.960938 136.949219 97.203125 138.160156 C 97.234375 138.308594 97.265625 138.464844 97.300781 138.617188 C 98.097656 140.238281 98.433594 141.949219 97.992188 143.511719 C 98.390625 143.332031 98.855469 143.453125 99.246094 143.613281 C 99.695312 143.800781 100.019531 144.085938 100.332031 144.453125 C 100.5625 144.722656 100.804688 145.027344 101.003906 145.355469 C 101.34375 145.523438 101.652344 145.722656 101.933594 145.945312 C 101.835938 146.070312 101.816406 146.238281 101.957031 146.402344 C 102.722656 147.285156 103.246094 148.371094 103.621094 149.480469 C 103.703125 149.78125 103.78125 150.082031 103.855469 150.382812 C 103.871094 150.789062 103.871094 151.214844 103.847656 151.664062 Z M 103.847656 151.664062 " fill-opacity="1" fill-rule="nonzero"/><path fill="#f8cd5a" d="M 95.144531 157.75 C 94.171875 156.722656 94.4375 155.269531 94.066406 154.078125 C 93.851562 153.394531 93.460938 152.953125 93.042969 152.53125 C 92.988281 152.273438 92.949219 152.011719 92.9375 151.75 C 92.925781 151.4375 92.542969 151.351562 92.375 151.515625 C 92.371094 151.507812 92.363281 151.5 92.355469 151.492188 C 92.246094 151.308594 92.089844 151.203125 91.890625 151.183594 C 92.015625 151.398438 92.15625 151.585938 92.300781 151.761719 C 92.347656 152.792969 92.765625 153.734375 92.976562 154.734375 C 93 154.851562 93.074219 154.925781 93.164062 154.964844 C 93.183594 155.835938 93.195312 156.683594 93.390625 157.328125 C 93.242188 157.578125 93.246094 157.878906 93.222656 158.171875 C 93.175781 158.8125 93.035156 159.449219 92.914062 160.078125 C 92.8125 160.613281 92.699219 161.183594 92.472656 161.683594 C 92.335938 161.914062 92.199219 162.132812 92.082031 162.363281 C 91.863281 162.691406 91.640625 163.015625 91.5 163.398438 C 91.425781 163.613281 91.554688 163.84375 91.800781 163.832031 C 92.324219 163.8125 92.808594 163.441406 93.246094 163.183594 C 93.71875 162.910156 94.175781 162.621094 94.570312 162.253906 C 95.144531 161.890625 95.601562 161.445312 95.773438 160.902344 C 95.828125 160.726562 95.847656 160.5 95.835938 160.246094 C 96 160.550781 96.0625 160.851562 95.949219 161.164062 C 97.445312 159.863281 99.378906 159.242188 100.949219 157.964844 C 99.488281 159.066406 96.398438 159.0625 95.144531 157.75 Z M 93.691406 158.242188 C 93.695312 158.136719 93.703125 158.03125 93.71875 157.929688 C 93.734375 157.953125 93.746094 157.972656 93.761719 157.992188 C 93.738281 158.074219 93.714844 158.160156 93.691406 158.242188 Z M 100.953125 157.964844 C 101.019531 157.910156 101.085938 157.859375 101.148438 157.800781 C 101.085938 157.859375 101.019531 157.910156 100.953125 157.964844 Z M 65.03125 131.957031 C 65.1875 131.398438 65.34375 130.964844 65.628906 130.460938 C 66.351562 129.175781 67.484375 128.550781 68.742188 127.882812 C 68.738281 128.066406 68.800781 128.285156 68.792969 128.464844 C 70.550781 128.628906 72.207031 127.902344 73.90625 128.148438 C 73.839844 128.039062 73.855469 127.878906 73.945312 127.785156 C 74.054688 127.664062 74.246094 127.660156 74.367188 127.769531 C 74.558594 127.929688 74.753906 128.078125 74.925781 128.253906 C 74.976562 128.304688 74.992188 128.378906 74.988281 128.449219 C 75.070312 128.484375 75.148438 128.519531 75.230469 128.5625 C 75.695312 128.796875 81.324219 132.539062 79.957031 129.753906 C 80.164062 129.5625 80.535156 129.390625 80.824219 129.316406 C 80.9375 129.132812 81.203125 129.050781 81.347656 129.28125 C 81.6875 129.816406 81.894531 130.433594 82.054688 131.0625 C 82.300781 131.476562 82.4375 131.964844 82.5 132.460938 C 82.527344 132.53125 82.5625 132.601562 82.589844 132.675781 C 82.679688 132.914062 82.710938 133.128906 82.628906 133.375 C 82.597656 133.476562 82.550781 133.566406 82.5 133.65625 C 82.488281 133.683594 82.472656 133.703125 82.457031 133.726562 C 82.359375 133.867188 82.246094 133.996094 82.125 134.121094 C 81.976562 134.492188 81.78125 134.84375 81.597656 135.210938 C 81.539062 135.320312 81.429688 135.378906 81.316406 135.375 C 81.234375 135.460938 81.136719 135.523438 80.992188 135.566406 C 80.796875 135.628906 80.515625 135.460938 80.589844 135.222656 C 80.59375 135.214844 80.597656 135.203125 80.601562 135.191406 C 78.679688 133.28125 76.402344 130.40625 73.820312 129.410156 C 72.75 128.996094 71.648438 129.054688 70.585938 129.339844 C 70.601562 129.449219 70.554688 129.558594 70.421875 129.632812 C 69.820312 129.949219 69.222656 130.277344 68.640625 130.632812 C 68.625 130.695312 68.589844 130.75 68.527344 130.792969 C 67.652344 131.433594 66.914062 132.214844 65.988281 132.789062 C 65.882812 132.859375 65.777344 132.847656 65.699219 132.792969 C 65.65625 132.839844 65.617188 132.882812 65.582031 132.929688 C 65.527344 132.992188 65.460938 133.027344 65.394531 133.039062 C 65.292969 133.21875 65.148438 133.386719 64.910156 133.539062 C 64.894531 133.328125 64.984375 133.183594 64.890625 132.96875 C 64.695312 133.128906 64.898438 132.425781 65.03125 131.957031 Z M 63.660156 136.558594 C 63.609375 136.914062 63.441406 137.273438 63.21875 137.628906 C 63.347656 137.273438 63.492188 136.917969 63.660156 136.558594 Z M 44.871094 158.898438 C 44.875 158.917969 44.882812 158.9375 44.886719 158.957031 C 44.839844 158.929688 44.796875 158.90625 44.75 158.878906 C 44.542969 158.757812 44.582031 158.761719 44.871094 158.898438 Z M 53.226562 143.644531 C 53.257812 144.285156 53.476562 144.828125 53.539062 145.445312 C 50.453125 145.976562 47.136719 148.222656 44.871094 152.109375 C 44.578125 149.746094 46.386719 147.1875 48.121094 145.820312 C 49.214844 144.957031 51.726562 142.867188 53.226562 143.644531 Z M 51.515625 159.835938 C 51.988281 161.039062 52.992188 162.476562 52.910156 163.503906 C 51.859375 163.988281 50.914062 163.28125 50.085938 162.523438 C 49.761719 162.382812 49.429688 162.253906 49.125 162.074219 C 48.632812 161.78125 48.152344 161.519531 47.625 161.308594 C 47.035156 161.074219 46.386719 160.816406 46.023438 160.300781 C 45.519531 160.023438 45.101562 159.628906 44.886719 158.957031 C 47.332031 160.28125 48.492188 158.46875 49.058594 156.507812 C 49.582031 154.691406 50.25 153.609375 51.480469 152.277344 C 51.339844 152.574219 51.226562 152.914062 51.140625 153.28125 C 51.222656 153.332031 51.277344 153.421875 51.257812 153.542969 C 51.070312 154.714844 51.03125 155.898438 51.097656 157.082031 C 51.109375 157.3125 51.132812 157.539062 51.15625 157.769531 C 51.238281 157.765625 51.324219 157.8125 51.328125 157.921875 C 51.339844 158.566406 51.425781 159.203125 51.515625 159.835938 Z M 62.691406 144.824219 C 62.722656 145.046875 62.753906 145.261719 62.789062 145.464844 C 62.679688 145.316406 62.585938 145.160156 62.519531 144.996094 C 62.417969 145.039062 62.296875 145.023438 62.230469 144.921875 C 62.230469 144.941406 62.226562 144.960938 62.226562 144.980469 C 60.574219 144.917969 57.308594 145.324219 56.230469 146.648438 C 55.820312 146.265625 55.332031 145.960938 55.265625 145.777344 C 55.050781 145.757812 54.960938 145.664062 54.988281 145.503906 C 56.03125 145.15625 57.519531 144.257812 57.464844 143.023438 C 58.464844 142.832031 59.148438 142.527344 59.707031 142.078125 C 59.652344 141.917969 59.722656 141.71875 59.941406 141.71875 C 59.992188 141.71875 60.035156 141.730469 60.074219 141.75 C 60.535156 141.289062 60.925781 140.714844 61.386719 140 C 61.855469 139.273438 62.699219 138.460938 63.21875 137.628906 C 62.664062 139.191406 62.476562 140.738281 62.371094 142.34375 C 62.503906 142.378906 62.617188 142.484375 62.625 142.65625 C 62.65625 143.164062 62.675781 143.667969 62.613281 144.171875 C 62.632812 144.34375 62.648438 144.507812 62.671875 144.671875 C 62.671875 144.675781 62.675781 144.683594 62.679688 144.691406 C 62.699219 144.734375 62.703125 144.78125 62.691406 144.824219 Z M 85.113281 142.941406 C 84.9375 143.285156 85.050781 143.519531 85.226562 143.828125 C 85.347656 144.046875 85.082031 144.375 84.847656 144.203125 C 84.328125 143.816406 84.296875 143.203125 84.625 142.671875 C 84.816406 142.371094 85.277344 142.621094 85.113281 142.941406 Z M 86.125 143.066406 C 86.046875 142.90625 86.101562 142.71875 86.273438 142.648438 C 86.4375 142.585938 86.601562 142.671875 86.664062 142.828125 C 86.664062 142.832031 86.664062 142.832031 86.664062 142.835938 C 86.695312 142.902344 86.730469 142.964844 86.773438 143.023438 C 86.859375 143.171875 86.785156 143.324219 86.621094 143.359375 C 86.402344 143.410156 86.214844 143.25 86.125 143.066406 Z M 84.867188 140.96875 C 84.839844 140.804688 84.835938 140.644531 84.832031 140.476562 C 84.828125 140.332031 84.976562 140.214844 85.117188 140.222656 C 85.265625 140.230469 85.375 140.359375 85.375 140.503906 C 85.371094 140.675781 85.359375 140.828125 85.332031 141 C 85.3125 141.117188 85.199219 141.191406 85.085938 141.183594 C 84.960938 141.179688 84.886719 141.082031 84.867188 140.96875 Z M 84.410156 138.019531 C 84.765625 138.019531 84.75 138.5625 84.398438 138.5625 C 84.046875 138.5625 84.058594 138.019531 84.410156 138.019531 Z M 83.132812 136.515625 C 83.484375 136.515625 83.46875 137.058594 83.117188 137.058594 C 82.765625 137.058594 82.777344 136.515625 83.132812 136.515625 Z M 76.847656 128.070312 C 76.785156 127.957031 76.878906 127.8125 76.984375 127.765625 C 77.097656 127.714844 77.257812 127.78125 77.296875 127.902344 C 77.335938 128.023438 77.390625 128.132812 77.464844 128.238281 C 77.5625 128.382812 77.367188 128.605469 77.214844 128.496094 C 77.058594 128.382812 76.941406 128.242188 76.847656 128.070312 Z M 78.808594 128.308594 C 78.8125 128.175781 78.949219 128.085938 79.074219 128.09375 C 79.199219 128.101562 79.3125 128.234375 79.292969 128.359375 C 79.289062 128.378906 79.28125 128.398438 79.28125 128.421875 C 79.28125 128.429688 79.292969 128.503906 79.28125 128.46875 C 79.296875 128.515625 79.308594 128.519531 79.34375 128.5625 C 79.410156 128.648438 79.378906 128.773438 79.304688 128.839844 C 79.226562 128.910156 79.105469 128.914062 79.027344 128.84375 C 78.867188 128.699219 78.804688 128.519531 78.808594 128.308594 Z M 71.542969 130.875 C 71.597656 130.980469 71.589844 131.125 71.488281 131.210938 C 70.933594 131.675781 70.332031 132.113281 69.9375 132.730469 C 69.695312 133.109375 69.628906 133.546875 69.414062 133.933594 C 69.019531 134.640625 68.320312 133.964844 67.933594 133.609375 C 67.691406 133.386719 68.046875 133.027344 68.289062 133.246094 C 68.324219 133.277344 68.378906 133.335938 68.445312 133.402344 C 68.304688 132.882812 68.660156 132.339844 69.105469 131.863281 C 69.441406 131.457031 69.882812 131.105469 70.246094 130.800781 C 70.375 130.691406 70.535156 130.753906 70.621094 130.871094 C 71.398438 130.109375 72.273438 129.703125 73.082031 130.539062 C 73.351562 130.816406 72.964844 131.261719 72.679688 130.992188 C 72.324219 130.652344 71.933594 130.664062 71.542969 130.875 Z M 70.300781 135.8125 C 70.4375 135.792969 70.609375 135.921875 70.601562 136.070312 C 70.597656 136.15625 70.59375 136.242188 70.585938 136.328125 C 70.582031 136.425781 70.585938 136.53125 70.515625 136.609375 C 70.460938 136.667969 70.386719 136.695312 70.304688 136.691406 C 70.148438 136.683594 70.070312 136.558594 70.058594 136.414062 C 70.054688 136.3125 70.046875 136.210938 70.039062 136.113281 C 70.027344 135.953125 70.148438 135.828125 70.300781 135.8125 Z M 73.574219 135.4375 C 73.21875 135.4375 73.234375 134.890625 73.585938 134.890625 C 73.9375 134.890625 73.925781 135.4375 73.574219 135.4375 Z M 77.871094 136 C 77.855469 136.078125 77.851562 136.136719 77.902344 136.199219 C 77.960938 136.269531 77.96875 136.363281 77.910156 136.433594 C 77.859375 136.5 77.746094 136.53125 77.675781 136.476562 C 77.597656 136.414062 77.535156 136.347656 77.492188 136.257812 C 77.445312 136.15625 77.433594 136.058594 77.433594 135.953125 C 77.433594 135.828125 77.570312 135.75 77.675781 135.757812 C 77.789062 135.765625 77.894531 135.886719 77.871094 136 Z M 77.917969 143.9375 C 77.90625 144.027344 77.941406 144.117188 77.957031 144.203125 C 77.992188 144.390625 77.824219 144.5625 77.636719 144.46875 C 77.285156 144.296875 77.375 143.773438 77.53125 143.503906 C 77.605469 143.382812 77.746094 143.316406 77.882812 143.378906 C 78.003906 143.4375 78.078125 143.609375 78.007812 143.730469 C 77.96875 143.792969 77.925781 143.863281 77.917969 143.9375 Z M 80.328125 142.664062 C 80.0625 142.664062 80.074219 142.253906 80.335938 142.253906 C 80.601562 142.253906 80.589844 142.664062 80.328125 142.664062 Z M 73.53125 149.453125 C 73.496094 149.246094 73.488281 149.046875 73.484375 148.835938 C 73.484375 148.566406 73.90625 148.546875 73.90625 148.816406 C 73.902344 149.03125 73.894531 149.234375 73.863281 149.445312 C 73.839844 149.613281 73.554688 149.617188 73.53125 149.453125 Z M 73.585938 146.421875 C 73.847656 146.421875 73.835938 146.832031 73.574219 146.832031 C 73.308594 146.832031 73.320312 146.421875 73.585938 146.421875 Z M 71.375 146.421875 C 71.636719 146.421875 71.625 146.832031 71.363281 146.832031 C 71.097656 146.832031 71.109375 146.421875 71.375 146.421875 Z M 68.878906 147.351562 C 68.917969 147.390625 68.957031 147.429688 68.996094 147.46875 C 69.09375 147.566406 68.953125 147.738281 68.855469 147.636719 C 68.816406 147.597656 68.777344 147.558594 68.738281 147.523438 C 68.640625 147.421875 68.777344 147.253906 68.878906 147.351562 Z M 67.882812 144.917969 C 68.144531 144.917969 68.132812 145.324219 67.871094 145.324219 C 67.605469 145.324219 67.617188 144.917969 67.882812 144.917969 Z M 63.613281 155.023438 C 63.566406 155.078125 63.515625 155.128906 63.472656 155.175781 C 63.402344 155.246094 63.300781 155.269531 63.226562 155.195312 C 63.148438 155.121094 63.164062 155.015625 63.238281 154.949219 C 63.3125 154.882812 63.382812 154.816406 63.460938 154.757812 C 63.503906 154.726562 63.539062 154.695312 63.597656 154.707031 C 63.644531 154.714844 63.691406 154.75 63.707031 154.800781 C 63.738281 154.886719 63.664062 154.960938 63.613281 155.023438 Z M 64.613281 153.660156 C 64.347656 153.660156 64.359375 153.253906 64.621094 153.253906 C 64.886719 153.253906 64.875 153.660156 64.613281 153.660156 Z M 65.898438 152.570312 C 65.699219 152.570312 65.699219 152.261719 65.898438 152.261719 L 66.015625 152.261719 C 66.214844 152.261719 66.214844 152.570312 66.015625 152.570312 Z M 63.566406 151.113281 C 63.300781 151.113281 63.3125 150.707031 63.574219 150.707031 C 63.839844 150.707031 63.828125 151.113281 63.566406 151.113281 Z M 59.378906 151.25 C 59.386719 151.25 59.386719 151.265625 59.378906 151.265625 C 59.371094 151.265625 59.371094 151.25 59.378906 151.25 Z M 61.585938 162.113281 C 61.320312 162.113281 61.332031 161.707031 61.597656 161.707031 C 61.859375 161.707031 61.851562 162.113281 61.585938 162.113281 Z M 59.507812 158.546875 C 59.367188 158.546875 59.339844 158.328125 59.484375 158.328125 C 59.625 158.328125 59.652344 158.546875 59.507812 158.546875 Z M 55.773438 157.828125 C 55.660156 157.828125 55.660156 157.65625 55.773438 157.65625 C 55.882812 157.65625 55.882812 157.828125 55.773438 157.828125 Z M 65.671875 157.421875 C 65.933594 157.421875 65.921875 157.828125 65.660156 157.828125 C 65.394531 157.828125 65.40625 157.421875 65.671875 157.421875 Z M 66.828125 156.808594 C 66.542969 156.808594 66.539062 156.359375 66.828125 156.359375 C 67.117188 156.359375 67.117188 156.808594 66.828125 156.808594 Z M 75.085938 157.085938 C 74.730469 157.085938 74.746094 156.542969 75.097656 156.542969 C 75.453125 156.542969 75.4375 157.085938 75.085938 157.085938 Z M 76.367188 155.234375 C 76.011719 155.234375 76.027344 154.691406 76.378906 154.691406 C 76.734375 154.691406 76.71875 155.234375 76.367188 155.234375 Z M 76.015625 158.59375 C 75.664062 158.59375 75.679688 158.050781 76.03125 158.050781 C 76.382812 158.050781 76.371094 158.59375 76.015625 158.59375 Z M 84.28125 155.582031 C 83.929688 155.582031 83.945312 155.039062 84.292969 155.039062 C 84.648438 155.039062 84.632812 155.582031 84.28125 155.582031 Z M 86.257812 153.847656 C 85.90625 153.847656 85.921875 153.300781 86.273438 153.300781 C 86.625 153.300781 86.613281 153.847656 86.257812 153.847656 Z M 96.644531 155.902344 C 96.929688 155.902344 96.890625 156.34375 96.605469 156.34375 C 96.320312 156.339844 96.363281 155.902344 96.644531 155.902344 Z M 97.765625 154.707031 C 98.097656 154.707031 98.148438 155.222656 97.816406 155.222656 C 97.480469 155.222656 97.429688 154.707031 97.765625 154.707031 Z M 98.84375 154.691406 C 99.199219 154.691406 99.183594 155.234375 98.832031 155.234375 C 98.476562 155.234375 98.492188 154.691406 98.84375 154.691406 Z M 95.121094 152.605469 C 95.472656 152.605469 95.457031 153.152344 95.105469 153.152344 C 94.753906 153.152344 94.769531 152.605469 95.121094 152.605469 Z M 100.125 156.773438 C 100.476562 156.773438 100.460938 157.320312 100.109375 157.320312 C 99.757812 157.320312 99.773438 156.773438 100.125 156.773438 Z M 101.515625 150.824219 C 101.480469 150.824219 101.476562 150.765625 101.511719 150.765625 C 101.546875 150.769531 101.550781 150.824219 101.515625 150.824219 Z M 100.125 148.785156 C 100.476562 148.785156 100.460938 149.332031 100.109375 149.332031 C 99.757812 149.332031 99.773438 148.785156 100.125 148.785156 Z M 76.949219 164.265625 C 76.59375 164.265625 76.609375 163.722656 76.960938 163.722656 C 77.316406 163.722656 77.300781 164.265625 76.949219 164.265625 Z M 76.832031 162.414062 C 76.476562 162.414062 76.492188 161.871094 76.84375 161.871094 C 77.199219 161.871094 77.183594 162.414062 76.832031 162.414062 Z M 67.054688 163.109375 C 66.703125 163.109375 66.71875 162.566406 67.070312 162.566406 C 67.421875 162.566406 67.40625 163.109375 67.054688 163.109375 Z M 69.265625 161.949219 C 68.914062 161.949219 68.929688 161.40625 69.28125 161.40625 C 69.632812 161.40625 69.617188 161.949219 69.265625 161.949219 Z M 71.050781 160.902344 C 70.847656 160.921875 70.671875 160.898438 70.484375 160.824219 C 70.375 160.777344 70.324219 160.652344 70.382812 160.546875 C 70.4375 160.441406 70.570312 160.410156 70.667969 160.476562 C 70.785156 160.550781 70.894531 160.589844 71.03125 160.597656 C 71.199219 160.609375 71.226562 160.886719 71.050781 160.902344 Z M 72.875 163.109375 C 72.519531 163.109375 72.535156 162.566406 72.886719 162.566406 C 73.242188 162.566406 73.226562 163.109375 72.875 163.109375 Z M 47.617188 153.847656 C 47.265625 153.847656 47.28125 153.300781 47.628906 153.300781 C 47.984375 153.300781 47.96875 153.847656 47.617188 153.847656 Z M 50.410156 150.953125 C 50.058594 150.953125 50.074219 150.40625 50.425781 150.40625 C 50.777344 150.40625 50.761719 150.953125 50.410156 150.953125 Z M 51.125 149.40625 C 50.824219 149.40625 50.808594 148.941406 51.105469 148.941406 C 51.40625 148.945312 51.425781 149.40625 51.125 149.40625 Z M 47.398438 144.617188 C 47.753906 144.617188 47.738281 145.164062 47.386719 145.164062 C 47.03125 145.164062 47.046875 144.617188 47.398438 144.617188 Z M 48.5625 143.996094 C 48.671875 143.996094 48.65625 144.164062 48.546875 144.164062 C 48.441406 144.164062 48.457031 143.996094 48.5625 143.996094 Z M 50.425781 143.113281 C 50.777344 143.113281 50.761719 143.65625 50.410156 143.65625 C 50.058594 143.65625 50.074219 143.113281 50.425781 143.113281 Z M 51.332031 142.015625 C 51.605469 142.015625 51.640625 142.441406 51.363281 142.441406 C 51.089844 142.4375 51.058594 142.015625 51.332031 142.015625 Z M 52.984375 142.417969 C 53.339844 142.417969 53.324219 142.964844 52.972656 142.964844 C 52.621094 142.964844 52.632812 142.417969 52.984375 142.417969 Z M 58.6875 141.144531 C 59.042969 141.144531 59.027344 141.6875 58.675781 141.6875 C 58.320312 141.6875 58.335938 141.144531 58.6875 141.144531 Z M 60.441406 139.84375 C 60.335938 139.6875 60.414062 139.40625 60.667969 139.40625 C 61.019531 139.40625 61.003906 139.949219 60.65625 139.953125 C 60.648438 139.996094 60.613281 140.03125 60.554688 140.03125 C 60.445312 140.03125 60.40625 139.914062 60.441406 139.84375 Z M 56.457031 143.566406 C 56.671875 143.566406 56.699219 143.898438 56.484375 143.898438 C 56.269531 143.898438 56.242188 143.566406 56.457031 143.566406 Z M 56.238281 141.722656 C 56.59375 141.722656 56.59375 142.269531 56.238281 142.269531 C 55.882812 142.269531 55.882812 141.722656 56.238281 141.722656 Z M 56.59375 139.40625 C 56.945312 139.40625 56.929688 139.953125 56.582031 139.953125 C 56.226562 139.953125 56.242188 139.40625 56.59375 139.40625 Z M 62.179688 134.316406 C 62.535156 134.316406 62.519531 134.859375 62.167969 134.859375 C 61.8125 134.855469 61.828125 134.316406 62.179688 134.316406 Z M 61.015625 132.691406 C 61.371094 132.691406 61.355469 133.238281 61.003906 133.238281 C 60.652344 133.238281 60.664062 132.691406 61.015625 132.691406 Z M 75.914062 148.207031 C 76.269531 148.207031 76.253906 148.753906 75.902344 148.753906 C 75.546875 148.75 75.5625 148.207031 75.914062 148.207031 Z M 74.515625 148.902344 C 74.871094 148.902344 74.855469 149.445312 74.503906 149.445312 C 74.152344 149.445312 74.167969 148.902344 74.515625 148.902344 Z M 77.179688 147.941406 C 76.828125 147.941406 76.84375 147.398438 77.195312 147.398438 C 77.546875 147.398438 77.53125 147.941406 77.179688 147.941406 Z M 78.222656 146.113281 C 78.4375 146.113281 78.464844 146.445312 78.25 146.445312 C 78.035156 146.445312 78.007812 146.113281 78.222656 146.113281 Z M 80.089844 145.507812 C 79.738281 145.507812 79.753906 144.964844 80.105469 144.964844 C 80.457031 144.964844 80.441406 145.507812 80.089844 145.507812 Z M 86.421875 146.085938 C 86.84375 146.523438 87.160156 147.007812 87.179688 147.640625 C 86.371094 147.621094 85.65625 147.683594 85.007812 147.808594 C 85.003906 147.878906 84.972656 147.949219 84.917969 147.992188 C 84.644531 148.199219 84.308594 148.320312 84.003906 148.464844 C 83.664062 148.625 83.332031 148.789062 83.007812 148.976562 C 82.78125 149.105469 82.601562 148.882812 82.625 148.675781 C 81.558594 149.242188 80.558594 150.003906 79.367188 150.867188 C 79.34375 150.941406 79.289062 151 79.191406 151.011719 C 79.183594 151.011719 79.171875 151.015625 79.164062 151.015625 C 79.113281 151.050781 79.066406 151.085938 79.015625 151.121094 C 78.335938 151.605469 77.722656 152 77.167969 152.394531 C 77 152.648438 76.878906 152.925781 76.894531 153.183594 C 76.902344 153.367188 76.785156 153.480469 76.617188 153.519531 C 76.207031 153.613281 75.871094 153.761719 75.546875 154.039062 C 75.472656 154.097656 75.394531 154.117188 75.320312 154.113281 C 74.945312 154.617188 74.613281 155.21875 74.320312 155.996094 C 73.945312 156.980469 73.746094 158.070312 73.648438 159.171875 C 73.738281 159.714844 73.804688 160.261719 73.898438 160.808594 C 73.925781 160.96875 73.941406 161.234375 73.988281 161.484375 C 74.078125 161.457031 74.179688 161.476562 74.222656 161.574219 C 74.492188 162.164062 74.710938 162.757812 75.039062 163.320312 C 75.160156 163.523438 74.871094 163.714844 74.710938 163.558594 C 74.429688 163.28125 74.265625 162.902344 74.128906 162.515625 C 74.101562 162.507812 74.074219 162.5 74.046875 162.480469 C 74.03125 162.46875 74.015625 162.453125 74 162.441406 L 73.996094 162.445312 C 73.789062 162.261719 73.558594 162.050781 73.457031 161.785156 C 73.390625 161.613281 73.382812 161.433594 73.371094 161.25 C 72.910156 160.273438 71.902344 159.636719 70.90625 159.410156 C 69.324219 159.597656 68.089844 160.464844 66.945312 161.492188 C 66.972656 161.476562 67.003906 161.46875 67.046875 161.46875 C 67.320312 161.46875 67.351562 161.890625 67.078125 161.890625 C 66.875 161.890625 66.804688 161.660156 66.890625 161.539062 C 66 162.347656 65.164062 163.253906 64.253906 164.007812 C 64.167969 164.078125 64.058594 164.070312 63.972656 164.023438 C 63.964844 164.03125 63.957031 164.039062 63.949219 164.046875 C 63.742188 164.25 63.453125 163.914062 63.65625 163.710938 C 64.175781 163.191406 64.734375 162.710938 65.292969 162.234375 C 65.527344 161.988281 65.75 161.730469 65.949219 161.449219 C 66.074219 161.273438 66.191406 161.09375 66.308594 160.914062 C 66.285156 160.84375 66.289062 160.765625 66.34375 160.699219 C 66.5625 160.441406 66.761719 160.167969 66.972656 159.902344 C 66.847656 159.882812 66.726562 159.851562 66.609375 159.804688 C 68.375 157.082031 67.308594 153.558594 65.457031 151.191406 C 64.039062 149.382812 63.210938 147.921875 62.789062 145.464844 C 63.328125 146.207031 64.277344 146.808594 64.851562 147.363281 C 65.691406 148.175781 66.367188 149.496094 67.546875 150.015625 C 68.394531 150.386719 69.953125 150.539062 71.507812 150.511719 C 71.421875 150.394531 71.4375 150.207031 71.558594 150.113281 C 71.496094 150.148438 71.417969 150.140625 71.367188 150.085938 C 71.273438 149.984375 71.230469 149.871094 71.242188 149.738281 C 71.257812 149.59375 71.472656 149.605469 71.492188 149.738281 C 71.496094 149.796875 71.523438 149.828125 71.570312 149.863281 C 71.648438 149.914062 71.65625 150.023438 71.59375 150.089844 C 71.585938 150.097656 71.574219 150.105469 71.5625 150.109375 C 71.605469 150.078125 71.660156 150.0625 71.722656 150.0625 C 71.972656 150.0625 72.039062 150.339844 71.925781 150.496094 C 73.339844 150.441406 74.695312 150.238281 75.449219 149.914062 C 75.757812 149.777344 76.042969 149.617188 76.3125 149.433594 C 76.285156 149.410156 76.257812 149.386719 76.234375 149.363281 C 76.128906 149.269531 76.097656 149.125 76.203125 149.015625 C 76.296875 148.914062 76.460938 148.921875 76.550781 149.027344 C 76.582031 149.066406 76.613281 149.101562 76.648438 149.136719 C 76.65625 149.148438 76.664062 149.160156 76.671875 149.171875 C 77.308594 148.675781 77.863281 148.074219 78.425781 147.507812 C 79.445312 146.480469 80.886719 145.117188 81.515625 143.863281 C 82.160156 142.585938 82.117188 140.078125 81.640625 138.730469 C 82.207031 139.410156 82.5 141.085938 82.992188 142.253906 C 82.972656 141.84375 83.617188 141.699219 83.710938 142.140625 C 83.761719 142.382812 83.8125 142.628906 83.894531 142.867188 C 83.976562 143.101562 84.097656 143.292969 84.234375 143.488281 C 84.242188 143.488281 84.25 143.488281 84.257812 143.488281 C 84.261719 143.507812 84.269531 143.527344 84.273438 143.546875 C 84.308594 143.59375 84.34375 143.640625 84.378906 143.691406 C 84.425781 143.761719 84.4375 143.839844 84.417969 143.914062 C 84.785156 144.683594 85.503906 145.222656 86.117188 145.789062 C 86.132812 145.664062 86.222656 145.542969 86.386719 145.542969 C 86.726562 145.542969 86.726562 146.039062 86.421875 146.085938 Z M 88.355469 146.785156 C 88 146.785156 88.015625 146.238281 88.367188 146.238281 C 88.722656 146.238281 88.707031 146.785156 88.355469 146.785156 Z M 91.613281 149.214844 C 91.261719 149.214844 91.277344 148.671875 91.628906 148.671875 C 91.980469 148.671875 91.964844 149.214844 91.613281 149.214844 Z M 95.121094 145.542969 C 95.472656 145.542969 95.457031 146.089844 95.105469 146.089844 C 94.753906 146.089844 94.769531 145.542969 95.121094 145.542969 Z M 95.234375 143.113281 C 95.589844 143.113281 95.574219 143.65625 95.222656 143.65625 C 94.867188 143.65625 94.882812 143.113281 95.234375 143.113281 Z M 91.628906 143 C 91.980469 143 91.964844 143.542969 91.613281 143.542969 C 91.261719 143.539062 91.277344 143 91.628906 143 Z M 93.023438 135.238281 C 93.378906 135.238281 93.363281 135.785156 93.011719 135.785156 C 92.65625 135.785156 92.671875 135.238281 93.023438 135.238281 Z M 93.023438 135.238281 " fill-opacity="1" fill-rule="nonzero"/><g clip-path="url(#b6c3c010c2)"><path fill="#ad332e" d="M 107.375 150.703125 C 106.441406 150.09375 104.960938 149.519531 103.796875 149.761719 C 103.417969 148.425781 102.796875 147.140625 102.0625 145.996094 C 101.304688 144.808594 100.246094 143.527344 98.765625 143.300781 C 98.597656 143.273438 98.503906 143.390625 98.492188 143.523438 C 98.476562 143.515625 98.457031 143.511719 98.441406 143.511719 C 98.921875 141.625 98.28125 139.472656 97.65625 137.707031 C 97.089844 136.105469 96.253906 134.582031 95.015625 133.398438 C 92.566406 131.054688 89.070312 130.492188 85.957031 131.558594 C 84.886719 130.550781 83.382812 129.605469 81.902344 130.03125 C 81.621094 129.511719 81.289062 129.019531 80.878906 128.5625 C 79.660156 127.203125 78.074219 126.085938 76.347656 125.46875 C 73.273438 124.375 70.011719 125.746094 67.59375 127.695312 C 66.480469 128.589844 65.445312 129.738281 65.023438 131.117188 C 61.84375 130.207031 57.828125 132.015625 55.753906 134.382812 C 54.34375 135.992188 53.21875 137.96875 53.011719 140.117188 C 53.011719 140.132812 53.007812 140.152344 53.007812 140.167969 C 51.332031 140.132812 49.621094 140.109375 48.011719 140.636719 C 46.472656 141.144531 45.171875 142.175781 44.292969 143.527344 C 42.957031 145.5625 42.886719 147.964844 43.667969 150.128906 C 41.335938 151.175781 38.753906 152.769531 38.109375 155.34375 C 37.535156 157.617188 38.777344 159.75 40.523438 161.128906 C 41.910156 162.226562 43.542969 162.976562 45.230469 163.582031 C 45.152344 163.625 45.105469 163.710938 45.15625 163.8125 C 47.226562 168.003906 49.625 172.410156 53.53125 175.179688 C 57.789062 178.207031 62.976562 179.6875 68.128906 180.246094 C 70.871094 180.546875 73.6875 180.628906 76.4375 180.347656 C 79.195312 180.066406 81.835938 179.105469 84.523438 178.472656 C 89.050781 177.410156 93.050781 175.140625 96.398438 171.941406 C 98.355469 170.070312 99.886719 167.875 101.289062 165.578125 C 101.773438 164.785156 102.246094 163.980469 102.648438 163.140625 C 102.910156 162.589844 103.253906 161.917969 103.238281 161.273438 C 105.648438 159.488281 108.398438 157.078125 108.632812 153.957031 C 108.726562 152.703125 108.496094 151.429688 107.375 150.703125 Z M 98.683594 143.894531 C 98.691406 143.871094 98.695312 143.847656 98.699219 143.828125 C 98.707031 143.828125 98.71875 143.832031 98.726562 143.832031 C 100.269531 144.082031 101.316406 145.777344 102 147.027344 C 102.511719 147.964844 102.972656 148.984375 103.269531 150.035156 C 103.226562 150.152344 103.269531 150.296875 103.367188 150.402344 C 103.445312 150.722656 103.507812 151.046875 103.550781 151.375 C 103.597656 151.734375 103.617188 152.085938 103.613281 152.433594 C 103.539062 152.519531 103.546875 152.632812 103.605469 152.722656 C 103.402344 156.679688 100.015625 159.777344 96.195312 160.636719 C 95.722656 159.246094 95.039062 157.933594 93.851562 157.007812 C 93.757812 156.9375 93.660156 156.929688 93.574219 156.957031 C 93.605469 155.332031 93.277344 153.734375 92.6875 152.214844 C 92.625 152.054688 92.5625 151.894531 92.492188 151.738281 C 94.882812 149.351562 97.464844 147.132812 98.683594 143.894531 Z M 45.085938 152.761719 C 45.089844 152.734375 45.09375 152.707031 45.105469 152.675781 C 45.195312 152.46875 45.289062 152.269531 45.402344 152.074219 C 45.402344 152.066406 45.40625 152.0625 45.414062 152.058594 C 45.664062 151.550781 45.945312 151.074219 46.238281 150.648438 C 47.277344 149.144531 48.847656 147.890625 50.445312 147.023438 C 52.050781 146.148438 53.914062 145.660156 55.648438 146.21875 C 53.972656 147.222656 52.570312 148.664062 51.753906 150.375 C 50.820312 152.351562 50.878906 154.582031 51.070312 156.703125 C 51.175781 157.867188 51.261719 159.039062 51.597656 160.164062 C 51.902344 161.210938 52.375 162.195312 52.898438 163.148438 C 52.246094 162.96875 51.597656 162.800781 50.910156 162.777344 C 49.796875 162.1875 48.652344 161.621094 47.523438 161.09375 C 47.050781 160.871094 46.5625 160.691406 46.074219 160.523438 C 46.042969 160.34375 45.910156 160.21875 45.785156 160.097656 C 45.773438 160.085938 45.761719 160.070312 45.746094 160.054688 C 43.769531 158.175781 44.054688 155.207031 45.085938 152.761719 Z M 52 159.140625 C 51.800781 158.148438 51.730469 157.113281 51.652344 156.105469 C 51.507812 154.171875 51.527344 152.109375 52.46875 150.355469 C 53.347656 148.722656 54.753906 147.40625 56.394531 146.523438 C 56.402344 146.527344 56.40625 146.53125 56.414062 146.535156 C 56.582031 146.429688 56.753906 146.335938 56.9375 146.257812 C 56.9375 146.257812 56.9375 146.253906 56.9375 146.253906 C 58.628906 145.46875 60.523438 145.136719 62.34375 145.382812 C 62.488281 145.402344 62.597656 145.320312 62.648438 145.214844 C 63.050781 146.621094 63.746094 147.929688 64.824219 149.039062 C 65.800781 150.050781 66.96875 150.859375 68.246094 151.445312 C 68.292969 152.800781 68.519531 154.167969 68.371094 155.523438 C 68.324219 155.925781 68.242188 156.320312 68.132812 156.710938 C 68.046875 156.777344 68.019531 156.894531 68.046875 156.992188 C 67.769531 157.84375 67.363281 158.664062 66.914062 159.425781 C 65.71875 161.449219 64.390625 163.488281 62.128906 164.429688 C 62.097656 164.441406 62.070312 164.460938 62.046875 164.480469 C 60.859375 164.328125 59.671875 164.164062 58.492188 163.988281 C 57.140625 163.789062 55.769531 163.734375 54.425781 163.511719 C 54.207031 163.472656 53.992188 163.429688 53.773438 163.375 C 53.769531 163.34375 53.757812 163.308594 53.734375 163.269531 C 52.972656 161.972656 52.296875 160.621094 52 159.140625 Z M 67.5 159.558594 C 67.929688 158.796875 68.328125 157.992188 68.597656 157.152344 C 70.277344 157.164062 72.523438 157.246094 73.523438 158.703125 C 73.472656 161.058594 74.429688 163.222656 75.257812 165.441406 C 72.542969 165.445312 69.796875 165.179688 67.089844 164.992188 C 65.804688 164.902344 64.523438 164.773438 63.246094 164.625 C 65.160156 163.488281 66.429688 161.453125 67.5 159.558594 Z M 68.773438 151.671875 C 70.011719 152.171875 71.339844 152.46875 72.671875 152.53125 C 73.65625 152.574219 74.679688 152.566406 75.535156 152.191406 C 74.5625 153.863281 73.90625 155.742188 73.617188 157.632812 C 73.601562 157.726562 73.589844 157.820312 73.578125 157.914062 C 72.4375 156.785156 70.304688 156.667969 68.742188 156.65625 C 68.820312 156.355469 68.878906 156.046875 68.917969 155.738281 C 69.078125 154.386719 68.855469 153.027344 68.773438 151.671875 Z M 74.53125 161.746094 C 74.257812 160.859375 74.101562 159.976562 74.09375 159.074219 C 74.167969 159.015625 74.210938 158.921875 74.171875 158.816406 C 74.148438 158.761719 74.125 158.707031 74.101562 158.652344 C 74.113281 158.367188 74.136719 158.082031 74.179688 157.789062 C 74.546875 155.289062 75.546875 152.792969 77.113281 150.789062 C 77.128906 150.769531 77.140625 150.742188 77.152344 150.71875 C 78.285156 149.417969 79.8125 148.425781 81.421875 147.796875 C 81.542969 147.75 81.601562 147.648438 81.609375 147.542969 C 84.96875 146.265625 89.386719 147.578125 91.316406 150.605469 C 92.414062 152.328125 93.019531 154.480469 93.058594 156.507812 C 93.101562 158.855469 92.316406 161.09375 91.308594 163.183594 C 91.164062 163.484375 91.632812 163.707031 91.777344 163.40625 C 92.636719 161.628906 93.339844 159.75 93.527344 157.773438 C 93.535156 157.695312 93.539062 157.617188 93.546875 157.542969 C 94.558594 158.386719 95.148438 159.535156 95.558594 160.757812 C 95.554688 160.757812 95.550781 160.757812 95.546875 160.761719 C 95.539062 160.761719 95.535156 160.765625 95.527344 160.765625 C 95.542969 160.804688 95.558594 160.84375 95.570312 160.882812 C 95.664062 160.972656 95.71875 161.097656 95.707031 161.253906 C 95.730469 161.3125 95.753906 161.371094 95.777344 161.429688 C 95.796875 161.480469 95.804688 161.527344 95.808594 161.570312 C 95.875 161.808594 95.9375 162.042969 95.996094 162.277344 C 96.011719 162.335938 96.035156 162.378906 96.066406 162.414062 C 95.859375 162.5 95.652344 162.585938 95.445312 162.664062 C 94.320312 163.074219 93.121094 163.253906 91.960938 163.535156 C 90.015625 164.007812 88.171875 164.421875 86.175781 164.464844 C 85.273438 164.484375 83.804688 164.421875 82.855469 164.933594 C 82.671875 164.957031 82.484375 164.976562 82.300781 164.996094 C 81.496094 164.878906 80.652344 165.136719 79.851562 165.195312 C 78.523438 165.296875 77.191406 165.414062 75.859375 165.4375 C 75.859375 165.421875 75.855469 165.40625 75.851562 165.394531 C 75.484375 164.152344 74.910156 162.984375 74.53125 161.746094 Z M 85.8125 132.195312 C 85.996094 132.378906 86.242188 132.21875 86.273438 132.019531 C 87.371094 131.660156 88.523438 131.5 89.636719 131.578125 C 93.082031 131.820312 95.671875 134.265625 96.90625 137.339844 C 97.757812 139.464844 98.359375 141.808594 97.726562 144.054688 C 97.6875 144.183594 97.765625 144.289062 97.871094 144.339844 C 97.257812 145.691406 96.417969 146.890625 95.394531 147.984375 C 94.378906 149.082031 93.25 150.078125 92.226562 151.167969 C 91.761719 150.246094 91.167969 149.394531 90.378906 148.710938 C 89.183594 147.667969 87.636719 147.03125 86.085938 146.746094 C 84.410156 146.4375 82.644531 146.53125 81.085938 147.21875 C 81.308594 146.761719 81.625 146.328125 81.84375 145.878906 C 82.222656 145.089844 82.308594 144.207031 82.34375 143.339844 C 82.429688 141.28125 82.425781 139.136719 81.921875 137.125 C 81.800781 136.640625 81.648438 136.15625 81.464844 135.679688 C 81.835938 135.066406 82.300781 134.511719 82.835938 134.015625 C 83 134.042969 83.191406 133.925781 83.167969 133.726562 C 83.949219 133.074219 84.847656 132.554688 85.804688 132.183594 C 85.808594 132.1875 85.808594 132.191406 85.8125 132.195312 Z M 85.378906 131.777344 C 85.226562 131.84375 85.070312 131.910156 84.917969 131.984375 C 84.253906 132.300781 83.613281 132.6875 83.035156 133.144531 C 82.804688 132.234375 82.53125 131.34375 82.140625 130.507812 C 83.3125 130.234375 84.492188 130.984375 85.378906 131.777344 Z M 65.421875 131.253906 C 65.878906 129.773438 67.078125 128.59375 68.3125 127.695312 C 69.777344 126.628906 71.574219 125.742188 73.394531 125.515625 C 75.585938 125.246094 77.816406 126.488281 79.421875 127.859375 C 80.265625 128.582031 81.019531 129.421875 81.527344 130.414062 C 82.03125 131.394531 82.316406 132.460938 82.570312 133.53125 C 82.058594 133.992188 81.601562 134.511719 81.226562 135.085938 C 80.101562 132.539062 78.105469 130.285156 75.390625 129.492188 C 73.753906 129.011719 71.085938 128.660156 69.640625 129.789062 C 69.589844 129.828125 69.5625 129.878906 69.550781 129.9375 C 67.960938 130.460938 66.546875 131.664062 65.46875 132.890625 C 65.445312 132.914062 65.425781 132.941406 65.402344 132.96875 C 65.386719 132.496094 65.4375 132.019531 65.53125 131.5625 C 65.554688 131.4375 65.519531 131.320312 65.421875 131.253906 Z M 65.085938 134.164062 C 65.097656 134.179688 65.113281 134.195312 65.128906 134.203125 C 65.226562 134.007812 65.34375 133.832031 65.476562 133.660156 C 65.476562 133.65625 65.476562 133.652344 65.476562 133.648438 C 66.578125 132.25 68.101562 130.847656 69.8125 130.300781 C 69.832031 130.300781 69.855469 130.300781 69.875 130.292969 C 70.085938 130.238281 70.292969 130.183594 70.496094 130.136719 C 70.511719 130.132812 70.523438 130.132812 70.539062 130.128906 C 69.140625 130.914062 67.929688 132.304688 67.316406 133.46875 C 67.222656 133.648438 67.335938 133.886719 67.550781 133.882812 C 67.867188 133.871094 68.179688 133.882812 68.496094 133.886719 C 68.585938 133.886719 68.691406 133.84375 68.734375 133.757812 C 68.972656 133.273438 69.117188 132.757812 69.308594 132.253906 C 69.410156 131.992188 69.523438 131.722656 69.695312 131.496094 C 69.941406 131.171875 70.253906 131.070312 70.589844 130.871094 C 70.65625 130.832031 70.695312 130.757812 70.703125 130.6875 C 71.160156 130.433594 71.640625 130.246094 72.140625 130.152344 C 72.203125 130.164062 72.269531 130.175781 72.332031 130.191406 C 72.433594 130.21875 72.503906 130.167969 72.535156 130.09375 C 72.976562 130.050781 73.425781 130.085938 73.878906 130.210938 C 74.03125 130.253906 74.136719 130.117188 74.132812 129.988281 C 74.941406 130.117188 75.71875 130.335938 76.457031 130.730469 C 78.375 131.746094 79.800781 133.585938 80.648438 135.550781 C 80.695312 135.65625 80.738281 135.765625 80.777344 135.875 C 80.777344 135.875 80.773438 135.878906 80.773438 135.882812 C 80.777344 135.898438 80.785156 135.90625 80.789062 135.921875 C 80.84375 136.101562 80.910156 136.269531 80.964844 136.4375 C 80.972656 136.4375 80.976562 136.4375 80.980469 136.433594 C 81.636719 138.4375 81.691406 140.53125 81.6875 142.640625 C 81.6875 143.679688 81.664062 144.773438 81.195312 145.71875 C 80.941406 146.226562 80.445312 146.8125 80.402344 147.382812 C 80.398438 147.445312 80.414062 147.5 80.441406 147.546875 C 80.394531 147.578125 80.363281 147.617188 80.347656 147.660156 C 79.328125 148.148438 78.367188 148.8125 77.507812 149.507812 C 77.105469 149.828125 76.796875 150.210938 76.488281 150.621094 C 75.972656 151.3125 75.488281 151.71875 74.609375 151.84375 C 71.855469 152.234375 68.949219 151.449219 66.6875 149.867188 C 64 147.984375 62.753906 145.132812 62.753906 141.910156 C 62.757812 139.238281 63.421875 136.550781 64.957031 134.339844 C 65 134.28125 65.042969 134.222656 65.085938 134.164062 Z M 68.46875 133.085938 C 68.441406 133.164062 68.40625 133.230469 68.367188 133.265625 C 68.289062 133.339844 68.152344 133.359375 68.011719 133.355469 C 68.03125 133.320312 68.058594 133.28125 68.082031 133.246094 C 68.175781 133.273438 68.277344 133.246094 68.359375 133.179688 C 68.398438 133.148438 68.429688 133.117188 68.46875 133.085938 Z M 53.699219 139.46875 C 54.011719 137.660156 55.085938 135.90625 56.332031 134.574219 C 58.300781 132.46875 61.972656 130.804688 64.890625 131.644531 C 64.878906 131.707031 64.867188 131.769531 64.859375 131.835938 C 64.847656 131.910156 64.875 131.96875 64.914062 132.011719 C 64.851562 132.523438 64.847656 133.039062 64.925781 133.546875 C 63.386719 135.554688 62.550781 137.886719 62.289062 140.425781 C 62.132812 141.929688 62.195312 143.445312 62.550781 144.871094 C 62.527344 144.855469 62.496094 144.84375 62.464844 144.835938 C 60.417969 144.460938 58.230469 144.875 56.320312 145.84375 C 55.613281 145.542969 54.894531 145.402344 54.175781 145.390625 C 54.171875 145.375 54.164062 145.359375 54.160156 145.34375 C 53.371094 143.644531 53.386719 141.273438 53.699219 139.46875 Z M 45.0625 143.40625 C 47.003906 140.882812 50.023438 140.65625 52.972656 140.574219 C 52.851562 142.175781 52.890625 143.949219 53.53125 145.417969 C 51.285156 145.613281 49.082031 146.972656 47.425781 148.464844 C 46.449219 149.347656 45.621094 150.410156 44.996094 151.582031 C 44.726562 151.140625 44.496094 150.683594 44.308594 150.210938 C 44.3125 150.207031 44.320312 150.203125 44.324219 150.199219 C 44.261719 150.128906 44.203125 150.03125 44.207031 149.945312 C 44.207031 149.929688 44.207031 149.910156 44.207031 149.894531 C 44.203125 149.894531 44.195312 149.898438 44.191406 149.898438 C 43.421875 147.742188 43.5625 145.351562 45.0625 143.40625 Z M 77.28125 155.8125 C 77.320312 154.660156 78.007812 154.269531 78.78125 153.570312 C 79.238281 153.15625 79.410156 152.707031 79.308594 152.097656 C 79.234375 151.667969 79.109375 151.238281 79.21875 150.804688 C 79.726562 148.765625 82.773438 149.054688 84.269531 148.414062 C 84.515625 148.3125 84.707031 148.714844 84.46875 148.832031 C 83.675781 149.230469 82.808594 149.359375 81.953125 149.574219 C 81.019531 149.8125 79.738281 150.207031 79.78125 151.386719 C 79.816406 152.324219 80.082031 152.988281 79.371094 153.757812 C 78.699219 154.484375 77.886719 154.761719 77.65625 155.839844 C 77.613281 156.042969 77.277344 156.03125 77.28125 155.8125 Z M 77.003906 160.234375 C 78.160156 159.492188 79.089844 158.375 79.699219 157.152344 C 80.164062 156.210938 80.460938 155.1875 81.226562 154.433594 C 81.40625 154.257812 81.644531 154.566406 81.46875 154.742188 C 80.59375 155.617188 80.371094 156.914062 79.753906 157.949219 C 79.113281 159.015625 78.316406 159.941406 77.273438 160.625 C 77.019531 160.792969 76.75 160.402344 77.003906 160.234375 Z M 55.199219 148.765625 C 55.792969 148.0625 56.753906 147.714844 57.65625 147.644531 C 58.460938 147.585938 59.6875 147.8125 59.96875 148.699219 C 60.007812 148.816406 59.878906 148.921875 59.777344 148.84375 C 59.058594 148.300781 58.472656 148.121094 57.546875 148.246094 C 56.839844 148.335938 56.109375 148.613281 55.644531 149.171875 C 55.394531 149.46875 54.949219 149.058594 55.199219 148.765625 Z M 55.199219 148.765625 " fill-opacity="1" fill-rule="nonzero"/></g><path fill="#ffefca" d="M 102.367188 161.496094 C 100.652344 162.644531 98.957031 163.320312 97.015625 164.164062 C 95.257812 164.925781 93.519531 165.492188 91.675781 166.011719 C 84.546875 168.015625 77.066406 168.179688 69.710938 168.238281 C 65.808594 168.269531 61.929688 167.894531 58.085938 167.230469 C 56.25 166.914062 54.414062 166.554688 52.589844 166.15625 C 50.828125 165.773438 49.066406 165.292969 47.460938 164.464844 C 47.3125 164.386719 47.394531 164.152344 47.554688 164.21875 C 51.230469 165.828125 55.359375 166.457031 59.304688 167.070312 C 63.070312 167.65625 66.835938 167.890625 70.640625 167.828125 C 74.203125 167.773438 77.765625 167.6875 81.316406 167.367188 C 85.363281 167 89.402344 166.324219 93.277344 165.0625 C 94.914062 164.527344 96.617188 163.929688 98.128906 163.121094 C 99.535156 162.363281 100.453125 162.164062 102.292969 161.164062 C 102.484375 161.0625 102.546875 161.375 102.367188 161.496094 Z M 44.902344 160.125 C 43.449219 159.363281 42.269531 157.988281 41.976562 156.355469 C 41.652344 154.546875 42.644531 153.066406 44.21875 152.234375 C 44.429688 152.125 44.261719 151.792969 44.050781 151.902344 C 42.390625 152.785156 41.3125 154.355469 41.589844 156.273438 C 41.855469 158.09375 43.160156 159.617188 44.761719 160.457031 C 44.96875 160.5625 45.105469 160.230469 44.902344 160.125 Z M 104.644531 151.597656 C 104.515625 151.472656 104.292969 151.675781 104.410156 151.8125 C 106.058594 153.78125 104.199219 156.269531 102.742188 157.753906 C 100.992188 159.53125 98.824219 160.574219 96.539062 161.496094 C 96.296875 161.59375 96.476562 161.957031 96.714844 161.859375 C 99.269531 160.789062 101.648438 159.613281 103.503906 157.5 C 104.839844 155.976562 106.449219 153.378906 104.644531 151.597656 Z M 104.644531 151.597656 " fill-opacity="1" fill-rule="nonzero"/><path fill="#39b54a" d="M 300.371094 199.738281 C 298.800781 196.09375 296.46875 189 298.757812 181.425781 C 302.519531 169 317.265625 160.089844 335.015625 161.242188 C 337.371094 176.402344 331.5625 190.605469 320.621094 196.941406 C 313.246094 201.210938 305.609375 200.714844 301.996094 200.203125 C 305.699219 197.375 309.855469 193.738281 314.007812 189.136719 C 320.421875 182.03125 324.703125 174.980469 327.539062 169.355469 C 323.46875 175.082031 318.574219 181.265625 312.730469 187.582031 C 308.515625 192.144531 304.347656 196.179688 300.371094 199.738281 Z M 300.371094 199.738281 " fill-opacity="1" fill-rule="nonzero"/><path fill="#39b54a" d="M 295.636719 200.132812 C 292.867188 200.976562 287.539062 202.089844 282.253906 199.757812 C 273.582031 195.933594 268.394531 184.328125 270.742188 171.371094 C 281.910156 170.929688 291.691406 176.414062 295.34375 185 C 297.800781 190.785156 296.792969 196.359375 296.113281 198.976562 C 294.382812 196.011719 292.105469 192.644531 289.128906 189.199219 C 284.539062 183.875 279.800781 180.125 275.972656 177.5625 C 279.769531 181.042969 283.824219 185.167969 287.898438 190.003906 C 290.839844 193.496094 293.40625 196.902344 295.636719 200.132812 Z M 295.636719 200.132812 " fill-opacity="1" fill-rule="nonzero"/></svg>